# xmcd
# 
# Track frame offsets:
#     150
#     11862
#     24375
#     37137
#     53120
#     65925
#     75737
#     87762
#     100147
#     116350
#     127162
#     137662
#     154257
#     166637
#     178000
#     188275
#     205050
#     215037
# 
# Disc length: 2999
# 
# Revision: 3
# Processed by: cddbd v1.5.2PL0 Copyright (c) Steve Scherf et al.
# Submitted via: fre:ac v1.0.31
# 
DISCID=f60bb512
DTITLE=Various Artist - Trucker Hits
DYEAR=0
DGENRE=Country
TTITLE0=Dave Dudley - Six Days On The Road
TTITLE1=Ricky Williams - Eighteen Wheels
TTITLE2=Bobby McLee - Girl On The Billboard
TTITLE3=Red Sovine - Phantom 309
TTITLE4=Billy Wyman - M And Old C. B.
TTITLE5=John O'Hara - Dixie Winds
TTITLE6=Billy Wyman - Truck Driver's Prayer
TTITLE7=Anne "Chicken" Doyle - Diesel Smoke Sally
TTITLE8=Bobby Bare - The Waitress At Main Street Cafe
TTITLE9=Tedy Nelson - Honky Tonky Man
TTITLE10=Jonny Cash - You Win Again
TTITLE11=Billy Wayman - Giddy-Up Go
TTITLE12=George Kent - The Great South State Truck Stop Desaster
TTITLE13=David Price - The Lonesome Truck Driver's Waltz
TTITLE14=Anne "Chicken" Doyle - Soft Shoulders, Dangerous Curves
TTITLE15=Teddy Nelson - Semi-Truck
TTITLE16=Dave Dudley - Truck Drivin' Son Of A Gun
TTITLE17=Ricky Williams - Looking At The World Through A Windshield
EXTD=ID3G: 2
EXTT0=
EXTT1=
EXTT2=
EXTT3=
EXTT4=
EXTT5=
EXTT6=
EXTT7=
EXTT8=
EXTT9=
EXTT10=
EXTT11=
EXTT12=
EXTT13=
EXTT14=
EXTT15=
EXTT16=
EXTT17=
PLAYORDER=
